<svg xmlns="http://www.w3.org/2000/svg" viewBox="0 0 200 200">
  <g fill="none" stroke="#FFFFFF" stroke-width="4">
    <!-- Левый речевой пузырь -->
    <path d="M30,100 Q30,60 70,60 Q110,60 110,100 Q110,140 70,140 Q50,140 40,120 L30,130" />
    <!-- Правый речевой пузырь -->
    <path d="M170,100 Q170,60 130,60 Q90,60 90,100 Q90,140 130,140 Q150,140 160,120 L170,130" />
  </g>
  <!-- Стрелки между пузырями -->
  <g fill="#FFFFFF">
    <path d="M95,90 L105,90 L105,85 L115,95 L105,105 L105,100 L95,100 Z" />
    <path d="M105,110 L95,110 L95,115 L85,105 L95,95 L95,100 L105,100 Z" />
  </g>
  <!-- Символы в пузырях -->
  <text x="60" y="105" font-family="Arial, sans-serif" font-size="24" fill="#FFFFFF">A</text>
  <text x="130" y="105" font-family="Arial, sans-serif" font-size="24" fill="#FFFFFF">Б</text>
</svg>
